# xmcd
#
# Track frame offsets: 
#        150
#        11301
#        23531
#        32171
#        45055
#        57657
#        67476
#        80545
#        90313
#        104521
#        112547
#        123739
#        133366
#        143986
#        154495
#        183652
#        192450
#        205923
#        217703
#        227106
#        237921
#        249006
#        260278
#        270478
#        279523
#        291682
#        312416
#        322549
#        333752
#
# Disc length: 4615 seconds
#
# Revision: 1
# Processed by: cddbd v1.5.2PL0 Copyright (c) Steve Scherf et al.
# Submitted via: ExactAudioCopy v1.3
#
DISCID=9f12051d
DTITLE=Various Artist - How Britain Got the Blues Vol. 2 How Merseysi
DTITLE=de Got the Blues [CD2]
DYEAR=2013
DGENRE=Blues
TTITLE0=Dee Dee Warwick - You're No Good
TTITLE1=The Contours - Shake Sherrie
TTITLE2=Solomon Burke - Stupidity
TTITLE3=Chris Kenner - Something You Got
TTITLE4=Bobby Parker - Watch Your Step
TTITLE5=Benny Spellman - Fortune Teller
TTITLE6=Mary Wells - Bye Bye Baby
TTITLE7=The Isley Brothers - Nobody But Me
TTITLE8=Bo Diddley - You Can't Judge A Book
TTITLE9=Chuck Berry - I'm Talking About You
TTITLE10=The Isley Brothers - Twist And Shout
TTITLE11=Rosco Gordon - Just A Little Bit
TTITLE12=Ritchie Barrett - Some Other Guy
TTITLE13=Barbara George - I Know
TTITLE14=Ray Charles - What'd I Say
TTITLE15=James Ray and The Performance - If You Gotta Make A Fool
TTITLE16=The Miracles - You Really Got A Hold On Me
TTITLE17=Bobby Freeman - Shimmy Shimmy
TTITLE18=Chuck Berry - Bye Bye Johnny
TTITLE19=Gary U.S. Bonds - New Orleans
TTITLE20=The Hollywood Argyles - Sho' Know A Lot About Love
TTITLE21=LaVern Baker - Bumble Bee
TTITLE22=Chuck Berry - Memphis
TTITLE23=Arthur Alexander - A Shot Of Rhythm And Blues
TTITLE24=Elvis Presley - A Mess Of Blues
TTITLE25=Bo Diddley - I Can Tell
TTITLE26=The Shirelles - It's Love That Really Counts
TTITLE27=Buster Brown - Sugar Babe
TTITLE28=Sam Cook - Bring It On Home To Me
EXTD=YEAR: 2013
EXTT0=
EXTT1=
EXTT2=
EXTT3=
EXTT4=
EXTT5=
EXTT6=
EXTT7=
EXTT8=
EXTT9=
EXTT10=
EXTT11=
EXTT12=
EXTT13=
EXTT14=
EXTT15=
EXTT16=
EXTT17=
EXTT18=
EXTT19=
EXTT20=
EXTT21=
EXTT22=
EXTT23=
EXTT24=
EXTT25=
EXTT26=
EXTT27=
EXTT28=
PLAYORDER=
